/* XPM */
static char *_517937007299[] = {
/* columns rows colors chars-per-pixel */
"64 64 235 2 ",
"   c #CC841C",
".  c #CF881B",
"X  c #D38B1E",
"o  c #D98C1F",
"O  c #D2861F",
"+  c #D8941E",
"@  c #E0961F",
"#  c #CD8724",
"$  c #D58B21",
"%  c #DA8D21",
"&  c #D38C28",
"*  c #CF922E",
"=  c #D69424",
"-  c #DD9222",
";  c #DE9B24",
":  c #D6922D",
">  c #DA942C",
",  c #DC9C2B",
"<  c #D59926",
"1  c #C78C39",
"2  c #CD963E",
"3  c #D59636",
"4  c #DB9633",
"5  c #DB9B34",
"6  c #D39B3B",
"7  c #DB9C3B",
"8  c #D59835",
"9  c #E19623",
"0  c #E39B24",
"q  c #E19D2C",
"w  c #E19E36",
"e  c #DBA42C",
"r  c #DAA12A",
"t  c #DCAC35",
"y  c #DCA43C",
"u  c #DAA739",
"i  c #E6A125",
"p  c #E9A425",
"a  c #EDAA25",
"s  c #E4A52A",
"d  c #EAA529",
"f  c #E4AA2D",
"g  c #EEAB29",
"h  c #E5A827",
"j  c #F1AE25",
"k  c #F1AE2B",
"l  c #ECB22E",
"z  c #F4B226",
"x  c #F3B42C",
"c  c #F6BA2E",
"v  c #F9BC2D",
"b  c #E4A431",
"n  c #E4AC33",
"m  c #E9AC34",
"M  c #E6A93D",
"N  c #E4A439",
"B  c #E4B235",
"V  c #EBB334",
"C  c #E4B43D",
"Z  c #ECB53E",
"A  c #ECBB39",
"S  c #EBBB37",
"D  c #F5BB32",
"F  c #F9BD31",
"G  c #F3BC3B",
"H  c #F4B93C",
"J  c #ECC23D",
"K  c #FCC434",
"L  c #FEC837",
"P  c #F5C33B",
"I  c #FBC43B",
"U  c #FFCB3B",
"Y  c #F5C136",
"T  c #FFD03E",
"R  c #BF9153",
"E  c #BE9D6F",
"W  c #C6934B",
"Q  c #C9964A",
"!  c #CD9C4C",
"~  c #CA9341",
"^  c #D39B44",
"/  c #D39E4B",
"(  c #D99C42",
")  c #C69955",
"_  c #DEAA44",
"`  c #D5A14B",
"'  c #DAA54B",
"]  c #DBAA4D",
"[  c #D5AA46",
"{  c #DAB646",
"}  c #DFB14C",
"|  c #DBBB4A",
" . c #D8B64A",
".. c #CBA256",
"X. c #CDA559",
"o. c #D5AB54",
"O. c #DAAD53",
"+. c #D5A756",
"@. c #DCB553",
"#. c #D6BC59",
"$. c #D9B858",
"%. c #E2AC44",
"&. c #E4AB4A",
"*. c #E5A742",
"=. c #E2B446",
"-. c #ECB944",
";. c #E4B44B",
":. c #E8B849",
">. c #F3BB42",
",. c #E4AA56",
"<. c #EAB455",
"1. c #EABC51",
"2. c #E4B45B",
"3. c #F0BF58",
"4. c #C29A61",
"5. c #C6A164",
"6. c #D9B769",
"7. c #DAB676",
"8. c #CDAA71",
"9. c #E5BC66",
"0. c #E4BB76",
"q. c #E5AD60",
"w. c #DDC14D",
"e. c #E9C84A",
"r. c #F6C442",
"t. c #FECD43",
"y. c #F2C34B",
"u. c #FCCC4B",
"i. c #F7C843",
"p. c #FFD443",
"a. c #F4D34B",
"s. c #FED44C",
"d. c #FFDB4C",
"f. c #FCD647",
"g. c #EDC45B",
"h. c #F9CD5A",
"j. c #F6C857",
"k. c #EED350",
"l. c #FED353",
"z. c #FEDB52",
"x. c #FDD45B",
"c. c #FFDD5B",
"v. c #F5D753",
"b. c #FEE154",
"n. c #DBC365",
"m. c #EEC26C",
"M. c #E9C665",
"N. c #F7CC67",
"B. c #FBD464",
"V. c #FFDB63",
"C. c #FAD46B",
"Z. c #FEDB6C",
"A. c #F3D36B",
"S. c #E2C47C",
"D. c #E5CA74",
"F. c #F3CC74",
"G. c #F3CC7E",
"H. c #FBD574",
"J. c #FDDD73",
"K. c #FDDD7B",
"L. c #F7D77B",
"P. c #E3D17B",
"I. c #FFE166",
"U. c #FFE26B",
"Y. c #FFE674",
"T. c #FEE27D",
"R. c #FFE97C",
"E. c #BFAA8C",
"W. c #CCBB9C",
"Q. c #C6B595",
"!. c #CEB58B",
"~. c #C7B9A1",
"^. c #ECC786",
"/. c #E7CB84",
"(. c #EBD788",
"). c #FCDC83",
"_. c #F4D589",
"`. c #EACC96",
"'. c #EAD69A",
"]. c #F5DA97",
"[. c #F1CF88",
"{. c #FEE284",
"}. c #FFEB84",
"|. c #FEE38C",
" X c #FDEC8C",
".X c #F5E286",
"XX c #FDE593",
"oX c #FBEB94",
"OX c #FDE69A",
"+X c #FEEB9C",
"@X c #F6E99D",
"#X c #FFF194",
"$X c #FEF29D",
"%X c #EEE08C",
"&X c #CEC3AA",
"*X c #D5CAB6",
"=X c #D4CBBB",
"-X c #D0C5B7",
";X c #EEDBA5",
":X c #F3DAAA",
">X c #F4DAB4",
",X c #E5D4B8",
"<X c #FAE5A5",
"1X c #FFEAA3",
"2X c #F9E3A9",
"3X c #FFECAC",
"4X c #F4E3AD",
"5X c #FEF2A4",
"6X c #FEEDB3",
"7X c #FFEFB9",
"8X c #F4E8B6",
"9X c #FFF1BD",
"0X c #EEE0AA",
"qX c #D6D2CA",
"wX c #DAD3C9",
"eX c #DCD9D4",
"rX c #D5CEC4",
"tX c #E4D9C6",
"yX c #F7F1C4",
"uX c #FFF3C4",
"iX c #FEF6CB",
"pX c #FEF9CF",
"aX c #F9ECD5",
"sX c #F7ECD7",
"dX c #FEFBD1",
"fX c #FEF4DE",
"gX c #EFE6D2",
"hX c #E6E5E4",
"jX c #ECEAE5",
"kX c #ECEBEB",
"lX c #FCF5E9",
"zX c #F2F3F5",
"xX c #FEFEFE",
"cX c #FAF9F7",
"vX c None",
/* pixels */
"vXvXvXvXvXvXvXvXvXvXvXvXvXvXvXvXvXvXvXvXvXvXvXvXvXvXvXvXvXvXvXvXvXvXvXvXvXvXvXvXvXvXvXvXvXvXvXvXvXvXvXvXvXvXvXvXvXvXvXvXvXvXvXvX",
"vXvXvXvXvXvXvXvXvXvXvXvXvXvXvXvXvXvXvXvXvXvXvXvXvXvXvXvXvXvXvXvXvXvXvXvXvXvXvXvXvXvXvXvXvXvXvXvXvXvXvXvXvXvXvXvXvXvXvXvXvXvXvXvX",
"vXvXvXvXvXvXvXvXvXvXvXvXvXvXvXvXvXvXvXvXvXvXvXvXvXvXvXvXvXvXvXvXvXvXvXvXvXvXvXvXvXvXvXvXvXvXvXvXvXvXvXvXvXvXvXvXvXvXvXvXvXvXvXvX",
"vXvXvXvXvXvXvXvXvXvXvXvXvXvXvXvXvXvXvXvXvXvXvXvXvXvXvXL.).|.{.{.{.K.K.H.C.vXvXvXvXvXvXvXvXvXvXvXvXvXvXvXvXvXvXvXvXvXvXvXvXvXvXvX",
"vXvXvXvXvXvXvXvXvXvXvXvXvXvXvXvXvXvXvXvXvXvXvX).XX+X$X$X@X%X.X.XR.L.L.U.J.Z.Z.C.B.vXvXvXvXvXvXvXvXvXvXvXvXvXvXvXvXvXvXvXvXvXvXvX",
"vXvXvXvXvXvXvXvXvXvXvXvXvXvXvXvXvXvXvXvXvXXX5X5XoX(.D.n.#.w. . . .{  .{ { :.y.a.l.z.h.vXvXvXvXvXvXvXvXvXvXvXvXvXvXvXvXvXvXvXvXvX",
"vXvXvXvXvXvXvXvXvXvXvXvXvXvXvXvXvXvXL.oX5X5X(.n.#.w.e.k.v.v.b.b.v.d.f.f.e.J C t t C i.u.h.j.vXvXvXvXvXvXvXvXvXvXvXvXvXvXvXvXvXvX",
"vXvXvXvXvXvXvXvXvXvXvXvXvXvXvXvXvXXX3X@XP.#.w.k.b.b.b.b.b.b.d.d.d.f.d.f.T p.T U Y l e n r.l.B.vXvXvXvXvXvXvXvXvXvXvXvXvXvXvXvXvX",
"vXvXvXvXvXvXvXvXvXvXvXvXvXvXvX).$X@XP.#.e.k.b.b.b.d.d.d.d.d.d.f.T T f.T T T U L U U K l r Z B.J.F.vXvXvXvXvXvXvXvXvXvXvXvXvXvXvX",
"vXvXvXvXvXvXvXvXvXvXvXvXvXvX).5X%X#.w.v.b.d.d.d.d.d.d.d.p.p.T T T T T T U L L L K K K K F m y m.|._.vXvXvXvXvXvXvXvXvXvXvXvXvXvX",
"vXvXvXvXvXvXvXvXvXvXvXvXvXXX5XP. .k.d.d.d.d.d.d.d.p.T T T T T U T L L L K K K K K K K F F F x 7 m.2X].vXvXvXvXvXvXvXvXvXvXvXvXvX",
"vXvXvXvXvXvXvXvXvXvXvXvXoXoXn.{ d.d.d.d.d.f.p.p.T T T T U U U L K K K K K K K F F F F F H x F x e 0.8X2XvXvXvXvXvXvXvXvXvXvXvXvX",
"vXvXvXvXvXvXvXvXvXvXvX XoXn.C f.f.f.p.p.p.p.T T T U L L K K K K K K K Y K v F F v D D c x x x x x 5 6.6X2XvXvXvXvXvXvXvXvXvXvXvX",
"vXvXvXvXvXvXvXvXvXvX|..X$.C p.p.p.p.T T U U L L L L I p.x.Z.Z.J.U.V.x.y.I F F x x x x x x x k k g g , 6.2X].vXvXvXvXvXvXvXvXvXvX",
"vXvXvXvXvXvXvXvXvX). Xn.B T T T T U U L L L L K u.Z.|.$X$X#X#X#X}.R.Y.U.V.x.r.H x x k k k k k d d d d > 6.XX[.vXvXvXvXvXvXvXvXvX",
"vXvXvXvXvXvXvXvXH.{.g.t T T U T L L L L K K t.J.+X5X$X#X#X}.R.Y.U.U.I.c.z.s.s.t.G x k k d g d d d d d 0 = 9.K.m.vXvXvXvXvXvXvXvX",
"vXvXvXvXvXvXvXvX{.A.u Y U L K K L K K K K B.oX5X$X#X#X}.R.R.Y.I.c.c.z.s.p.T U U L Y x d d d d i 0 d 0 0 9 3 g.C.vXvXvXvXvXvXvXvX",
"vXvXvXvXvXvXvXH.Z._ S K L L K K K K K I K.5X$X#X#X}.R.Y.U.I.c.c.z.s.p.t.U L L K I K F l p 0 q 0 0 0 0 0 9 % : a.g.vXvXvXvXvXvXvX",
"vXvXvXvXvXvXvXY.1.e K I K K v K K v I ).5X#X X}.R.Y.U.I.b.c.l.s.p.U U U L L K K K K F F g 0 0 9 q 9 - 9 9 9 # b u.vXvXvXvXvXvXvX",
"vXvXvXvXvXvXC.h.e F F F K K v v c G ).$X X}.R.Y.U.I.V.z.z.s.p.U U U L L K Y K Y v c c c x d 0 9 - 9 - - % - % # D 1.vXvXvXvXvXvX",
"vXvXvXvXvXvXV.C b F F F F F c c D H.oX}.Y.Y.U.I.c.z.z.s.t.p.U L I L K K Y K v v c c z l z g s - - % % % % - %   0 >.vXvXvXvXvXvX",
"vXvXvXvXvXB.a., k D F c x x x x j. XR.Y.U.I.c.z.s.f.t.U U L K I I K Y v F F c l x l l j a a d - - % % % % % % $ . x ;.vXvXvXvXvX",
"vXvXvXvXvXx.A , D D D x x x k H ).R.I.I.c.l.s.p.p.U U U K y.F.OX2X<X).y.F x x x z g a a d p s 0 % % % % % % % %   ; =.vXvXvXvXvX",
"vXvXvXvXj.s.e h x x k k k k d N.R.V.c.z.s.p.p.U U L L P 6.tXjX=XW.&XjXfXF.x l g g g d a p p 0 0 % & % % % % % % O . m ' vXvXvXvX",
"vXvXvXvXh.I < g x k k g k d Z K.c.s.s.p.U U U L L K Y 6.eXxX;XZ x u &XxXlXg.k p d d s p 0 i 0 0 % $ % o o o o o $   , _ vXvXvXvX",
"vXvXvXvXh.A < g g g g d d d 3.Z.s.p.t.U U L L K K K { =XxXlX>.x x f ~.cXxX_.p p p s 0 0 0 0 ; - % $ % % - o @ @ -   $ *.vXvXvXvX",
"vXvXvXvXh.n < d d d d d p s N.l.U U U L K K K Y K Y o.hXxXuXH z z f Q.cXxXG.p p 0 0 0 0 - 0 - - 9 O o % - - @ @ 9 o . 7 vXvXvXvX",
"vXvXvXvXB.y 0 d d d 0 0 0 N C.t.U L L K K Y K D z Y X.hXxXaX-.j g d X.~.!.M 0 0 0 0 - 9 - - - - % $ o @ @ @ @ @ 9 +   4 vXvXvXvX",
"vXvXvXN.C.6 0 i 0 0 0 0 9 &.B.K L K K K v v v c z z [ eXxXcXF.p p d 0 , 0 0 0 9 9 9 - - - - % % % o O 9 @ @ @ @ 0 0   > / vXvXvX",
"vXvXvXF.L.6 - 0 0 0 9 9 9 <.l.K K Y Y v c c x x x z b !.zXxXaXm.M q.^.`.^.<.0 9 9 9 - % % % % % % $ O 0 p @ a p p i . : / vXvXvX",
"vXvXvX[.].2 - 9 9 9 - > 9 <.u.F v v c c l x z z l a a 7 Q.jXxXlXsXjXrX~.~.7.> 9 % % % % % % % % o o . 0 @ a p a a a + > ` vXvXvX",
"vXvXvX_.OX2 % 9 - - - - - <.>.F c c x l z l l a a { 9.m.!.rXzXcXxXcX`.( % > % % % % % % % % % % % o . p a a a a a a = q ' vXvXvX",
"vXvXvX_.2X~ % 9 - - % % % <.r.x x x z l k g p d d 5.-XwXrX~.8.!.eXxXxX>X*.% % % % % % % % % % - - - % p j j j z z z ; n ] vXvXvX",
"vXvXvX].8XQ o % % % % % o <.>.x z k g a a p d p 0 , 3 6 3 & % > R qXxXxX:X% % % % % % % % % > 9 9 0 o j j z z z v z i V O.vXvXvX",
"vXvXvX`.6X) O % % % % % $ *.>.k g a a d d s s 0 0 0 9 @ % - % % : E jXxXlX,.$ % % % % - - 9 9 0 i i = z z v c v v v p A O.vXvXvX",
"vXvXvX^.4X+.O % % % % % & w -.j a d p p 0 0 0 0 9 ; ( q.w - % % % 1 rXxXcX0.o % % - 9 9 9 0 d d a d ; c v v v F K v a r.+.vXvXvX",
"vXvXvXvX<X6.  % % % % % % 4 <.d p s i 0 0 0 9 9 - 2 *XcX>X> % % o 1 -XxXcX0.% - 9 9 9 q i d g g x h h K v K K K K F l y.vXvXvXvX",
"vXvXvXvX].9.# o % % % % % 9 &.d i 0 0 0 9 9 9 - - 4.kXxXaX4 % % o 1 qXxXlX,.- 9 0 0 d d g z x c D r x K K K K K L Y S y.vXvXvXvX",
"vXvXvXvXG.N.# % - % % % 9 @ *.m 0 0 ; - 9 - - - & ) hXxXaX4 o o $ 5.kXxX>Xw 0 0 d d k k x D v K c r K L K L U t.t.A D ;.vXvXvXvX",
"vXvXvXvXm.B.* o - - 9 9 9 9 s *.9 ; - - - - % % % 1 ~.zXlXq.4 ( !.eXcX,X*.0 d k k k x F F F K L f B L U t.t.s.u.l.A G O.vXvXvXvX",
"vXvXvXvXvXx.e $ @ @ @ @ 0 @ 0 k w - - % % % % % % % ~ E.qXtXtXtXqX*X8.*.d d k k c F F F K L U Y e r.t.u.u.l.x.x.h.B -.vXvXvXvXvX",
"vXvXvXvXvXj.V $ @ @ p 0 0 a @ p M - % % % % % % % % O & ~ ) 5.4.Q 5 d d k k c c F F K I U T T B =.s.x.x.x.V.V.V.g.m &.vXvXvXvXvX",
"vXvXvXvXvX1.I = + p i i a a p a m 5 % % % % % % % - - 9 - 9 0 d d d k x c v v K K L L U T T e.u l.x.V.V.Z.J.J.K.;.b / vXvXvXvXvX",
"vXvXvXvXvXvXr.i + p a a a a a j k m > % & % % % - - 9 0 q d d g k x x F F K K L U U p.p.f.i.u j.Z.Z.J.J.T.{.{.F.q y vXvXvXvXvXvX",
"vXvXvXvXvXvX<.l + p a a z z z z x z N % % % - - 0 0 q 0 p k l x c F K K K L U T p.p.p.d.a.u M.J.T.T.{.|.|.XXXX2., ^ vXvXvXvXvXvX",
"vXvXvXvXvXvXvXZ i + j z z z z z c v D b 9 9 9 0 0 0 k k k x c v F K K L U U T p.f.f.d.a.[ M.).{.|.|.XXXXOXOX[.4 7 vXvXvXvXvXvXvX",
"vXvXvXvXvXvXvX&.g + a v v v v v v v F F f 0 0 d g k k x F F Y K I L U T p.p.f.d.d.d.e.[ D.|.XXXXOX+X1X1X3X<X' > Q vXvXvXvXvXvXvX",
"vXvXvXvXvXvXvXvX*.+ + z v v v K K K K K K m q g x x F F F K K L U T p.p.f.d.d.b.v.| $.(.+X+X+X1X1X3X6X6X6X0.: ^ vXvXvXvXvXvXvXvX",
"vXvXvXvXvXvXvXvX` y o r K K K K I I L U t.t.>.n n x K I U U U T T p.d.d.d.d.a.w.o.S.OX1X1X3X3X6X6X6X7X9X`.8 3 W vXvXvXvXvXvXvXvX",
"vXvXvXvXvXvXvXvXvX/ 5 $ h K L L U U t.t.u.s.l.l.y.=.C V Y P T T p.a.a.e.w. .6.S.@X1X3X6X6X6X7X7X9XuXuX;X( 8 W vXvXvXvXvXvXvXvXvX",
"vXvXvXvXvXvXvXvXvXvX/ > $ V t.p.p.s.l.l.x.x.V.V.Z.Z.A.M.6.@.@.@.@.#.6.n./.'.<X6X8X6X6X7X7XuXuXuXiXiX:XO.5 ! vXvXvXvXvXvXvXvXvXvX",
"vXvXvXvXvXvXvXvXvXvXvX( : = -.l.x.x.x.V.Z.Z.J.J.T.{.{.|.|.|.XXXX].@X1X3X3X3X6X6X9X7XuXuXuXuXiXiXiX:XO.5 ` vXvXvXvXvXvXvXvXvXvXvX",
"vXvXvXvXvXvXvXvXvXvXvXvX/ q , :.B.I.Z.J.K.T.{.{.|.|.XXOX+X1X1X3X3X3X6X7X7X7XuXuXuXuXuXiXiXiXdXiX;X' N ..vXvXvXvXvXvXvXvXvXvXvXvX",
"vXvXvXvXvXvXvXvXvXvXvXvXvX` M b ;.F.{.{.{.|.XXXXOX+X1X1X3X3X6X6X9X9X9X9XuXuXuXiXiXiXiXpXpXdXyX/._ _ ..vXvXvXvXvXvXvXvXvXvXvXvXvX",
"vXvXvXvXvXvXvXvXvXvXvXvXvXvX+.-.D :.A.].+X+X1X1X3X3X6X6X6X7X9XuX9XuXuXiXiXiXiXpXpXpXdXdXpX0X9.%.} ..vXvXvXvXvXvXvXvXvXvXvXvXvXvX",
"vXvXvXvXvXvXvXvXvXvXvXvXvXvXvXvX1.r.A g._.<X3X7X6X7X7X9X9XuXuXuXiXiXpXpXpXpXpXdXdXdXiX8XD.} } o.vXvXvXvXvXvXvXvXvXvXvXvXvXvXvXvX",
"vXvXvXvXvXvXvXvXvXvXvXvXvXvXvXvXvXO.y.P >.M.[.4X7XuXuXiXiXiXiXiXpXpXpXdXdXdXdXdXyX;XS.;.=.@.X.vXvXvXvXvXvXvXvXvXvXvXvXvXvXvXvXvX",
"vXvXvXvXvXvXvXvXvXvXvXvXvXvXvXvXvXvXvXO.-.V V &.0.`.:X7XyXiXdXdXpXdXiXuXyX8X'.S.$._ :.@.X.vXvXvXvXvXvXvXvXvXvXvXvXvXvXvXvXvXvXvX",
"vXvXvXvXvXvXvXvXvXvXvXvXvXvXvXvXvXvXvXvXvX` ] M b , 7 / +.7.0.S.S.S.7.6.@.] { %.} @.X.vXvXvXvXvXvXvXvXvXvXvXvXvXvXvXvXvXvXvXvXvX",
"vXvXvXvXvXvXvXvXvXvXvXvXvXvXvXvXvXvXvXvXvXvXvXvXQ ^ 6 3 4 > : : 4 8 y y [ ' o...vXvXvXvXvXvXvXvXvXvXvXvXvXvXvXvXvXvXvXvXvXvXvXvX",
"vXvXvXvXvXvXvXvXvXvXvXvXvXvXvXvXvXvXvXvXvXvXvXvXvXvXvXvXvXW W Q Q ) W vXvXvXvXvXvXvXvXvXvXvXvXvXvXvXvXvXvXvXvXvXvXvXvXvXvXvXvXvX",
"vXvXvXvXvXvXvXvXvXvXvXvXvXvXvXvXvXvXvXvXvXvXvXvXvXvXvXvXvXvXvXvXvXvXvXvXvXvXvXvXvXvXvXvXvXvXvXvXvXvXvXvXvXvXvXvXvXvXvXvXvXvXvXvX",
"vXvXvXvXvXvXvXvXvXvXvXvXvXvXvXvXvXvXvXvXvXvXvXvXvXvXvXvXvXvXvXvXvXvXvXvXvXvXvXvXvXvXvXvXvXvXvXvXvXvXvXvXvXvXvXvXvXvXvXvXvXvXvXvX",
"vXvXvXvXvXvXvXvXvXvXvXvXvXvXvXvXvXvXvXvXvXvXvXvXvXvXvXvXvXvXvXvXvXvXvXvXvXvXvXvXvXvXvXvXvXvXvXvXvXvXvXvXvXvXvXvXvXvXvXvXvXvXvXvX"
};
