/* XPM */
static char *_517937000280[] = {
/* columns rows colors chars-per-pixel */
"16 16 164 2 ",
"   c #DA8D21",
".  c #DB8E20",
"X  c #DA8F21",
"o  c #D98E22",
"O  c #DA8E22",
"+  c #DA8E23",
"@  c #DB9022",
"#  c #DC9120",
"$  c #DC9121",
"%  c #DD9121",
"&  c #DE9423",
"*  c #D99226",
"=  c #DD9B2D",
"-  c #DC9D32",
";  c #DB9938",
":  c #E09723",
">  c #E09624",
",  c #E19725",
"<  c #E49E23",
"1  c #E59E23",
"2  c #E19825",
"3  c #E19D26",
"4  c #E39D27",
"5  c #E19A28",
"6  c #E39D2C",
"7  c #E7A022",
"8  c #E6A125",
"9  c #E6A126",
"0  c #E8A326",
"q  c #E9A426",
"w  c #EBA527",
"e  c #E6A22A",
"r  c #E7A628",
"t  c #E9A328",
"y  c #EAA629",
"u  c #ECA829",
"i  c #EEAD2A",
"p  c #F0AF29",
"a  c #F0AD2B",
"s  c #EFB22F",
"d  c #F3B52B",
"f  c #F4B428",
"g  c #F6B62A",
"h  c #F1B22D",
"j  c #F3B42F",
"k  c #F2B52F",
"l  c #F5B72E",
"z  c #F5B72F",
"x  c #E0A033",
"c  c #E8A633",
"v  c #E9AF37",
"b  c #E5AA38",
"n  c #EFB33A",
"m  c #F0B737",
"M  c #F2B832",
"N  c #F5B930",
"B  c #F7BF33",
"V  c #F5B935",
"C  c #F8BE32",
"Z  c #F6BB39",
"A  c #F2B93F",
"S  c #F2BE3D",
"D  c #F5BE3F",
"F  c #FBC234",
"G  c #FBC535",
"H  c #FBC436",
"J  c #FCC535",
"K  c #FCC637",
"L  c #FCC739",
"P  c #FDC73B",
"I  c #FBC73E",
"U  c #FECD3D",
"Y  c #FDCE3E",
"T  c #DFA244",
"R  c #DFA645",
"E  c #DFA749",
"W  c #DEA44B",
"Q  c #DFAB54",
"!  c #DAAA5A",
"~  c #DBA95D",
"^  c #E2A740",
"/  c #E3AC41",
"(  c #E9AF43",
")  c #EFBB41",
"_  c #E7B549",
"`  c #E9B44D",
"'  c #F1BB40",
"]  c #E3AA5C",
"[  c #E9B45C",
"{  c #E6B85B",
"}  c #EBB95D",
"|  c #DFAC65",
" . c #DDB566",
".. c #DEB06E",
"X. c #E9BF65",
"o. c #F2C242",
"O. c #F5C641",
"+. c #F3C244",
"@. c #FBCF41",
"#. c #FDCE46",
"$. c #F4C949",
"%. c #F5CD4D",
"&. c #FCCC4B",
"*. c #FECE4B",
"=. c #FED142",
"-. c #FDD546",
";. c #FFD149",
":. c #FFD248",
">. c #FCD14D",
",. c #F9D64F",
"<. c #FBCF57",
"1. c #F6CB5B",
"2. c #F4CB5F",
"3. c #F6CE5D",
"4. c #F4D154",
"5. c #F5D055",
"6. c #FED557",
"7. c #F3D65D",
"8. c #F9D058",
"9. c #FFDB5B",
"0. c #FFDD5E",
"q. c #EAC068",
"w. c #F0C862",
"e. c #F5CE62",
"r. c #F5CC65",
"t. c #F3D660",
"y. c #F2D067",
"u. c #FBD362",
"i. c #FCD862",
"p. c #FFDA62",
"a. c #F5D469",
"s. c #F2D969",
"d. c #FEDD68",
"f. c #E7C174",
"g. c #EFC771",
"h. c #EDC674",
"j. c #E3C578",
"k. c #EAC77F",
"l. c #F2D776",
"z. c #F1DA77",
"x. c #F6D87A",
"c. c #FFE677",
"v. c #FEE378",
"b. c #DFBA85",
"n. c #E7C488",
"m. c #EAD18E",
"M. c #EFD08C",
"N. c #F4DA81",
"B. c #FCDF88",
"V. c #E4C89F",
"C. c #EDD092",
"Z. c #EDD497",
"A. c #EFD99A",
"S. c #F2D99A",
"D. c #FEE595",
"F. c #EAD3A9",
"G. c #F8E5A2",
"H. c #FEE8A3",
"J. c #FDEDB1",
"K. c #FEEFB8",
"L. c #FAEFBD",
"P. c #FDF0BC",
"I. c #FDF3C4",
"U. c None",
/* pixels */
"U.U.U.U.U.U.U.U.U.U.U.U.U.U.U.U.",
"U.U.U.U.U.z.s.7.4.$.o.U.U.U.U.U.",
"U.U.U.l.t.6.-.=.Y J F ' g.U.U.U.",
"U.U.y.%.Y :.i.d.6.I k a ( q.U.U.",
"U.U.+.F &.v.c.0.:.L z y 2 x U.U.",
"U.) k Z i.9.>.e.r.D a 8 @ o = U.",
"U.v y A #.J w.M.f.} 1 : @ # * U.",
"U.^ , n C d { F.n.T # o @ 7 3 U.",
"U.W o c i q R ! V.] o > 8 f h U.",
"U.R @ 6 3 & ..| b.[ q h M P S U.",
"U.b 1 q 2 o ; ] ` V G O.8.u._ U.",
"U.U.y g j e u z G =.4.x.D.h.U.U.",
"U.U.- m &.8.1.3.a.N.G.K.S.! U.U.",
"U.U.U./ 2.B.H.J.P.I.L.A. .U.U.U.",
"U.U.U.U.U.X.k.C.Z.m.j.U.U.U.U.U.",
"U.U.U.U.U.U.U.U.U.U.U.U.U.U.U.U."
};
