/* XPM */
static char *_517936987515[] = {
/* columns rows colors chars-per-pixel */
"32 32 193 2 ",
"   c #D58B1F",
".  c #DB8D1D",
"X  c #DC921F",
"o  c #D68C22",
"O  c #DA8D21",
"+  c #D58D28",
"@  c #D59027",
"#  c #DD9223",
"$  c #D4902A",
"%  c #DB942A",
"&  c #DD9B2B",
"*  c #CD913C",
"=  c #DD9931",
"-  c #D3943A",
";  c #D5983A",
":  c #D89C3C",
">  c #E09522",
",  c #E39B24",
"<  c #E29B2B",
"1  c #DCA23D",
"2  c #E6A125",
"3  c #EAA425",
"4  c #ECA925",
"5  c #E4A32B",
"6  c #EAA529",
"7  c #E5A82F",
"8  c #EDAB2A",
"9  c #F2AF25",
"0  c #F0AE2B",
"q  c #F4B227",
"w  c #F3B32C",
"e  c #F6BA2E",
"r  c #F9BC2D",
"t  c #E8A733",
"y  c #E7AC32",
"u  c #EAAB33",
"i  c #E4A53A",
"p  c #E6AE3C",
"a  c #E8A938",
"s  c #E5A436",
"d  c #E7B033",
"f  c #ECB435",
"g  c #EEB138",
"h  c #EDBB3C",
"j  c #F6B732",
"k  c #F5BB31",
"l  c #F9BD31",
"z  c #F1BC3A",
"x  c #FCC334",
"c  c #FEC837",
"v  c #F3C33B",
"b  c #FBC43A",
"n  c #FECB3B",
"m  c #FFD03E",
"M  c #D29540",
"N  c #D39A43",
"B  c #DA9C43",
"V  c #D09A4C",
"C  c #D19B50",
"Z  c #D2A047",
"A  c #DDA142",
"S  c #DFAA43",
"D  c #D3A54C",
"F  c #DAA34C",
"G  c #D9AD51",
"H  c #DDAB5A",
"J  c #D8A354",
"K  c #DDB45B",
"L  c #E4AF4F",
"P  c #E3AB42",
"I  c #E9B640",
"U  c #EDBB43",
"Y  c #E8B449",
"T  c #EBBC49",
"R  c #E3B246",
"E  c #F2BC43",
"W  c #E3AB55",
"Q  c #E6B754",
"!  c #EAB65F",
"~  c #EBBD53",
"^  c #D3A865",
"/  c #D5AD6B",
"(  c #DEB262",
")  c #DDBC77",
"_  c #D6B47F",
"`  c #D8B67B",
"'  c #E2B563",
"]  c #E3BC62",
"[  c #EABE66",
"{  c #E3BB6B",
"}  c #E5BB77",
"|  c #F5C443",
" . c #FAC640",
".. c #F4CC44",
"X. c #FCCC44",
"o. c #F6C44D",
"O. c #F4CC4F",
"+. c #FED344",
"@. c #FCD54C",
"#. c #FEDA4B",
"$. c #F4D04B",
"%. c #ECC253",
"&. c #EFCE52",
"*. c #EFC45A",
"=. c #EECB5D",
"-. c #F5C756",
";. c #F5CB54",
":. c #F6CD5E",
">. c #F9CB52",
",. c #EDD35A",
"<. c #F2D654",
"1. c #FED353",
"2. c #F6D850",
"3. c #FED953",
"4. c #FFD65D",
"5. c #FFDE5F",
"6. c #E7C863",
"7. c #EACC63",
"8. c #EBC368",
"9. c #F0C66A",
"0. c #F3CD66",
"q. c #E9D063",
"w. c #EAD269",
"e. c #FAD262",
"r. c #FFDD62",
"t. c #FEDB6D",
"y. c #E7C472",
"u. c #EDC771",
"i. c #EECE74",
"p. c #F2CE76",
"a. c #EBD371",
"s. c #EED97D",
"d. c #EDD17A",
"f. c #F4D473",
"g. c #F8D572",
"h. c #FDDB74",
"j. c #FBDC79",
"k. c #FFE064",
"l. c #FFE46F",
"z. c #FFE573",
"x. c #FEE078",
"c. c #D5B281",
"v. c #DBC191",
"b. c #EAC687",
"n. c #F4CD84",
"m. c #ECD285",
"M. c #EDDA81",
"N. c #ECD48E",
"B. c #F6D381",
"V. c #F8DD82",
"C. c #F4DC89",
"Z. c #F9DE8F",
"A. c #E7CE90",
"S. c #E5C99C",
"D. c #ECD497",
"F. c #F2D794",
"G. c #F4D897",
"H. c #F3DB9A",
"J. c #FFE284",
"K. c #FFEA82",
"L. c #FDE38C",
"P. c #FEEC8D",
"I. c #F6E291",
"U. c #FCE493",
"Y. c #FEED93",
"T. c #FFE79A",
"R. c #FFE89E",
"E. c #FFF092",
"W. c #DECFB8",
"Q. c #F1D2A5",
"!. c #F8DEA9",
"~. c #FFEAA5",
"^. c #F6E4AE",
"/. c #FAE7AB",
"(. c #FFECAD",
"). c #F6E3A3",
"_. c #FEEDB5",
"`. c #F7EDBB",
"'. c #FDEEBB",
"]. c #FFF1BC",
"[. c #E5DCCB",
"{. c #EADECA",
"}. c #FDF3C4",
"|. c #FFF6CA",
" X c #FEF8CE",
".X c #E9E0D5",
"XX c #F3E8D4",
"oX c #FAEFDA",
"OX c #F3E9D9",
"+X c #FEFAD0",
"@X c #EDE7E0",
"#X c #F2EDE4",
"$X c None",
/* pixels */
"$X$X$X$X$X$X$X$X$X$X$X$X$X$X$X$X$X$X$X$X$X$X$X$X$X$X$X$X$X$X$X$X",
"$X$X$X$X$X$X$X$X$X$X$X$X$X$X$X$X$X$X$X$X$X$X$X$X$X$X$X$X$X$X$X$X",
"$X$X$X$X$X$X$X$X$X$X$XI.I.s.w.w.q.=.:.;.>.$X$X$X$X$X$X$X$X$X$X$X",
"$X$X$X$X$X$X$X$X$XI.s.w.,.<.2.2.@.....v h h o.$X$X$X$X$X$X$X$X$X",
"$X$X$X$X$X$X$XU.s.q.<.3.#.#.#.+.m m n n x l f *.B.$X$X$X$X$X$X$X",
"$X$X$X$X$X$XZ.w.&.#.#.+.+.m n n c x x x x x l f 8.H.$X$X$X$X$X$X",
"$X$X$X$X$XV.7...+.+.m n n X.1.1.1.X.v l w e e 0 u { F.$X$X$X$X$X",
"$X$X$X$Xj.7.v n n c c 1.x.P.Y.K.z.k.1. .j 8 8 6 6 s ] f.$X$X$X$X",
"$X$X$X$X0.z x x x b t.Y.E.K.z.k.3.+.n n x w 6 , , , & Y $X$X$X$X",
"$X$X$Xe.h l x r b h.P.K.z.k.3.+.X.n v x l e 8 , , > O % U $X$X$X",
"$X$X$XU j e j j e.K.l.r.3.+.n n X.x l r e 0 8 , O O O o 5 $X$X$X",
"$X$X;.d w w 0 E t.r.#.X.n b i.D.A.G.o.0 8 4 3 , O O O O + i $X$X",
"$X$XU 7 8 8 0 -.3.X.n x x y..X9.R [.!.8 3 2 , , . . X .   = $X$X",
"$X$XT 2 3 2 t >.n c x x k S.oXE 8 v.b.5 , > # # O X X > X $ $X$X",
"$X$XQ < , , i o.x l r e w ) #Xm.L ' W , > # # O o X , , , @ $X$X",
"$X$X' # > > i b r e w 8 d K W.#XOXv.J % O O o O O X 3 4 3 & $X$X",
"$X$X} O O O s z q 0 0 6 i / / ^ W.XXW O O O O > # , 9 q q 7 $X$X",
"$X$X} o O O = u 8 3 , , < P < . C @XQ.O O # , , 2 4 r r e f $X$X",
"$X$X} o O O % a 2 , , > M {.} . - XXQ.> # 5 4 4 8 w x x x h $X$X",
"$X$X8.% # # > 7 < > O O M [.S.B c.{.! < 8 w r x f b n +.| I $X$X",
"$X$X%.5 > , 2 3 < O O O O C c.c._ W 8 w l x c v z 1.1.4.T P $X$X",
"$X$X$Xy , 3 4 4 6 % O O > > < 5 0 w l x n n n %.e.t.x.g.P $X$X$X",
"$X$X$Xp , 4 q q w 6 > > , 6 8 e l x n m +.$.%.g.J.P.T.[ ; $X$X$X",
"$X$X$X$X5 4 r r x l u 5 0 w x x n n +.#.O.6.C.T.~.(.F.B $X$X$X$X",
"$X$X$X$X: & j n n X.X.o.h z v b +.$.&.7.m.R.(._.].^.H * $X$X$X$X",
"$X$X$X$X$X- & | 1.1.r.t.h.f.f.i.d.m.H./._.].}.|.`.{ N $X$X$X$X$X",
"$X$X$X$X$X$X: p :.j.V.P.U.R.~.(._.].}.}.|.|. X^.' Z $X$X$X$X$X$X",
"$X$X$X$X$X$X$XS T 0.Z.~._.'.].}.|.|. X+X X`.D.K Z $X$X$X$X$X$X$X",
"$X$X$X$X$X$X$X$X$XY %.u.F.^.}.}.}.}.`.).m.] G $X$X$X$X$X$X$X$X$X",
"$X$X$X$X$X$X$X$X$X$X$XA B F J ( ( K H G D $X$X$X$X$X$X$X$X$X$X$X",
"$X$X$X$X$X$X$X$X$X$X$X$X$X$X$X$X$X$X$X$X$X$X$X$X$X$X$X$X$X$X$X$X",
"$X$X$X$X$X$X$X$X$X$X$X$X$X$X$X$X$X$X$X$X$X$X$X$X$X$X$X$X$X$X$X$X"
};
